# 3ds Max Wavefront OBJ Exporter v0.97b - (c)2007 guruware
# File Created: 29.01.2019 11:46:29

#
# object Text002
#

v  -0.3186 0.8399 0.0832
v  -0.3255 0.7994 0.0832
v  -0.2960 0.7994 0.0832
v  -0.2866 0.8242 0.0832
v  -0.2759 0.8471 0.0832
v  -0.3090 0.8777 0.0832
v  -0.3563 0.0297 0.0832
v  -0.3563 0.0000 0.0832
v  0.2806 0.0000 0.0832
v  -0.2792 0.1011 0.0832
v  0.3563 0.2089 0.0832
v  0.3255 0.2089 0.0832
v  0.3195 0.1990 0.0832
v  0.3132 0.1897 0.0832
v  0.3066 0.1811 0.0832
v  0.2996 0.1732 0.0832
v  0.2924 0.1660 0.0832
v  0.2849 0.1594 0.0832
v  0.2772 0.1535 0.0832
v  0.2691 0.1482 0.0832
v  0.2608 0.1434 0.0832
v  0.2521 0.1392 0.0832
v  0.2432 0.1354 0.0832
v  0.2341 0.1323 0.0832
v  0.2246 0.1297 0.0832
v  0.2149 0.1276 0.0832
v  0.2040 0.1259 0.0832
v  0.1910 0.1244 0.0832
v  0.1759 0.1233 0.0832
v  0.1588 0.1223 0.0832
v  0.1395 0.1217 0.0832
v  0.1182 0.1213 0.0832
v  0.0948 0.1212 0.0832
v  -0.1860 0.1212 0.0832
v  -0.2089 0.1687 0.0832
v  -0.1453 0.2324 0.0832
v  -0.0887 0.2923 0.0832
v  -0.0388 0.3484 0.0832
v  0.0043 0.4006 0.0832
v  0.0615 0.3820 0.0832
v  0.0406 0.4490 0.0832
v  0.0979 0.4229 0.0832
v  0.0711 0.4949 0.0832
v  0.1312 0.4632 0.0832
v  0.0969 0.5397 0.0832
v  0.1615 0.5029 0.0832
v  0.1180 0.5833 0.0832
v  0.1889 0.5420 0.0832
v  0.2132 0.5804 0.0832
v  0.1344 0.6258 0.0832
v  0.2346 0.6183 0.0832
v  0.1462 0.6671 0.0832
v  0.2529 0.6555 0.0832
v  0.1532 0.7073 0.0832
v  0.2631 0.6790 0.0832
v  0.2717 0.7024 0.0832
v  0.1555 0.7464 0.0832
v  0.2787 0.7259 0.0832
v  0.2842 0.7493 0.0832
v  0.1542 0.7751 0.0832
v  0.2881 0.7728 0.0832
v  0.2904 0.7962 0.0832
v  0.1504 0.8023 0.0832
v  0.2912 0.8197 0.0832
v  0.1439 0.8280 0.0832
v  0.2894 0.8518 0.0832
v  0.2840 0.8828 0.0832
v  0.1349 0.8522 0.0832
v  0.2750 0.9124 0.0832
v  0.2624 0.9409 0.0832
v  0.1233 0.8749 0.0832
v  0.2462 0.9681 0.0832
v  0.1092 0.8961 0.0832
v  0.2264 0.9941 0.0832
v  0.0924 0.9158 0.0832
v  0.2030 1.0188 0.0832
v  0.1770 1.0412 0.0832
v  0.0739 0.9334 0.0832
v  0.1491 1.0602 0.0832
v  0.0543 0.9482 0.0832
v  0.1195 1.0757 0.0832
v  0.0337 0.9604 0.0832
v  0.0881 1.0877 0.0832
v  0.0122 0.9699 0.0832
v  0.0549 1.0963 0.0832
v  0.0199 1.1015 0.0832
v  -0.0104 0.9766 0.0832
v  -0.0168 1.1032 0.0832
v  -0.0340 0.9807 0.0832
v  -0.0513 1.1016 0.0832
v  -0.0586 0.9821 0.0832
v  -0.0841 1.0968 0.0832
v  -0.0811 0.9811 0.0832
v  -0.1152 1.0888 0.0832
v  -0.1030 0.9783 0.0832
v  -0.1447 1.0776 0.0832
v  -0.1241 0.9735 0.0832
v  -0.1725 1.0632 0.0832
v  -0.1446 0.9669 0.0832
v  -0.1986 1.0455 0.0832
v  -0.1644 0.9584 0.0832
v  -0.2230 1.0247 0.0832
v  -0.1836 0.9479 0.0832
v  -0.2453 1.0009 0.0832
v  -0.2021 0.9356 0.0832
v  -0.2651 0.9743 0.0832
v  -0.2196 0.9214 0.0832
v  -0.2823 0.9449 0.0832
v  -0.2357 0.9055 0.0832
v  -0.2504 0.8878 0.0832
v  -0.2969 0.9127 0.0832
v  -0.2639 0.8684 0.0832
v  -0.2960 0.7994 0.0000
v  -0.3255 0.7994 0.0000
v  -0.3186 0.8399 0.0000
v  -0.2866 0.8242 0.0000
v  -0.2759 0.8471 0.0000
v  -0.3090 0.8777 0.0000
v  0.2806 0.0000 0.0000
v  -0.3563 0.0000 0.0000
v  -0.3563 0.0297 0.0000
v  -0.2792 0.1011 0.0000
v  0.3255 0.2089 0.0000
v  0.3563 0.2089 0.0000
v  0.3195 0.1990 0.0000
v  0.3132 0.1897 0.0000
v  0.3066 0.1811 0.0000
v  0.2996 0.1732 0.0000
v  0.2924 0.1660 0.0000
v  0.2849 0.1594 0.0000
v  0.2772 0.1535 0.0000
v  0.2691 0.1482 0.0000
v  0.2608 0.1434 0.0000
v  0.2521 0.1392 0.0000
v  0.2432 0.1354 0.0000
v  0.2341 0.1323 0.0000
v  0.2246 0.1297 0.0000
v  0.2149 0.1276 0.0000
v  0.2040 0.1259 0.0000
v  0.1910 0.1244 0.0000
v  0.1759 0.1233 0.0000
v  0.1588 0.1223 0.0000
v  0.1395 0.1217 0.0000
v  0.1182 0.1213 0.0000
v  0.0948 0.1212 0.0000
v  -0.1860 0.1212 0.0000
v  -0.2089 0.1687 0.0000
v  -0.1453 0.2324 0.0000
v  -0.0887 0.2923 0.0000
v  -0.0388 0.3484 0.0000
v  0.0043 0.4006 0.0000
v  0.0615 0.3820 0.0000
v  0.0406 0.4490 0.0000
v  0.0979 0.4229 0.0000
v  0.0711 0.4949 0.0000
v  0.1312 0.4632 0.0000
v  0.0969 0.5397 0.0000
v  0.1615 0.5029 0.0000
v  0.1180 0.5833 0.0000
v  0.1889 0.5420 0.0000
v  0.2132 0.5804 0.0000
v  0.1344 0.6258 0.0000
v  0.2346 0.6183 0.0000
v  0.1462 0.6671 0.0000
v  0.2529 0.6555 0.0000
v  0.1532 0.7073 0.0000
v  0.2631 0.6790 0.0000
v  0.2717 0.7024 0.0000
v  0.1555 0.7464 0.0000
v  0.2787 0.7259 0.0000
v  0.2842 0.7493 0.0000
v  0.1542 0.7751 0.0000
v  0.2881 0.7728 0.0000
v  0.2904 0.7962 0.0000
v  0.1504 0.8023 0.0000
v  0.2912 0.8197 0.0000
v  0.1439 0.8280 0.0000
v  0.2894 0.8518 0.0000
v  0.2840 0.8828 0.0000
v  0.1349 0.8522 0.0000
v  0.2750 0.9124 0.0000
v  0.2624 0.9409 0.0000
v  0.1233 0.8749 0.0000
v  0.2462 0.9681 0.0000
v  0.1092 0.8961 0.0000
v  0.2264 0.9941 0.0000
v  0.0924 0.9158 0.0000
v  0.2030 1.0188 0.0000
v  0.1770 1.0412 0.0000
v  0.0739 0.9334 0.0000
v  0.1491 1.0602 0.0000
v  0.0543 0.9482 0.0000
v  0.1195 1.0757 0.0000
v  0.0337 0.9604 0.0000
v  0.0881 1.0877 0.0000
v  0.0122 0.9699 0.0000
v  0.0549 1.0963 0.0000
v  0.0199 1.1015 0.0000
v  -0.0104 0.9766 0.0000
v  -0.0168 1.1032 0.0000
v  -0.0340 0.9807 0.0000
v  -0.0513 1.1016 0.0000
v  -0.0586 0.9821 0.0000
v  -0.0841 1.0968 0.0000
v  -0.0811 0.9811 0.0000
v  -0.1152 1.0888 0.0000
v  -0.1030 0.9783 0.0000
v  -0.1447 1.0776 0.0000
v  -0.1241 0.9735 0.0000
v  -0.1725 1.0632 0.0000
v  -0.1446 0.9669 0.0000
v  -0.1986 1.0455 0.0000
v  -0.1644 0.9584 0.0000
v  -0.2230 1.0247 0.0000
v  -0.1836 0.9479 0.0000
v  -0.2453 1.0009 0.0000
v  -0.2021 0.9356 0.0000
v  -0.2651 0.9743 0.0000
v  -0.2196 0.9214 0.0000
v  -0.2823 0.9449 0.0000
v  -0.2357 0.9055 0.0000
v  -0.2504 0.8878 0.0000
v  -0.2969 0.9127 0.0000
v  -0.2639 0.8684 0.0000
# 224 vertices

vn -0.7000 0.1484 0.6986
vn -0.6289 -0.5299 0.5689
vn 0.4553 -0.6589 0.5988
vn 0.6437 -0.2711 0.7156
vn 0.6201 -0.3199 0.7163
vn -0.6865 0.2049 0.6976
vn -0.7138 0.3119 0.6271
vn -0.5774 -0.5774 0.5774
vn 0.4603 -0.6563 0.5979
vn -0.4838 0.5128 0.7092
vn 0.6776 0.4753 0.5612
vn -0.3876 0.6897 0.6117
vn -0.5889 0.3803 0.7131
vn -0.5771 0.4194 -0.7008
vn -0.5412 0.4442 0.7140
vn -0.5226 0.4868 -0.6999
vn -0.4791 0.5094 0.7148
vn -0.4524 0.5536 -0.6992
vn -0.4041 0.5708 0.7148
vn -0.3738 0.6083 -0.7002
vn -0.3284 0.6181 0.7142
vn -0.2949 0.6503 -0.7001
vn -0.2488 0.6543 0.7142
vn -0.2123 0.6815 -0.7003
vn -0.1677 0.6799 0.7139
vn -0.1299 0.7015 -0.7007
vn -0.0924 0.6959 0.7122
vn -0.0666 0.7076 -0.7035
vn -0.0460 0.7028 0.7099
vn -0.0308 0.7086 -0.7049
vn -0.0184 0.7051 0.7089
vn -0.0085 0.7085 -0.7057
vn -0.0020 0.7065 0.7077
vn 0.2031 0.0872 0.9753
vn -0.4972 0.5062 -0.7047
vn -0.5052 0.4906 0.7100
vn -0.5235 0.4804 -0.7037
vn -0.5337 0.4572 0.7114
vn -0.5516 0.4338 0.7124
vn 0.5237 -0.4806 0.7034
vn -0.5723 0.4042 0.7135
vn 0.5400 -0.4625 0.7032
vn -0.5948 0.3687 0.7143
vn 0.5568 -0.4427 0.7028
vn -0.6176 0.3270 0.7153
vn 0.5745 -0.4202 0.7024
vn -0.6398 0.2780 0.7164
vn 0.5928 -0.3947 0.7020
vn 0.6117 -0.3659 0.7014
vn -0.6604 0.2209 0.7177
vn 0.6307 -0.3331 0.7009
vn -0.6776 0.1550 0.7189
vn 0.6468 -0.2992 0.7015
vn -0.6892 0.0808 0.7201
vn 0.6627 -0.2644 0.7007
vn 0.6772 -0.2252 0.7005
vn -0.6949 0.0053 0.7191
vn 0.6899 -0.1835 0.7002
vn 0.7004 -0.1398 0.7000
vn -0.6929 -0.0646 0.7181
vn 0.7081 -0.0942 0.6998
vn 0.7128 -0.0474 0.6998
vn -0.6820 -0.1336 0.7191
vn 0.7168 0.0081 0.6972
vn -0.6629 -0.2059 0.7199
vn 0.7151 0.0821 0.6942
vn 0.7007 0.1667 0.6937
vn -0.6349 -0.2794 0.7203
vn 0.6754 0.2508 0.6935
vn 0.6398 0.3305 0.6939
vn -0.5980 -0.3511 0.7205
vn 0.5963 0.4026 0.6945
vn -0.5534 -0.4182 0.7203
vn 0.5477 0.4653 0.6953
vn -0.5043 -0.4777 0.7193
vn 0.4958 0.5199 0.6956
vn 0.4374 0.5710 0.6947
vn -0.4499 -0.5290 0.7195
vn 0.3699 0.6173 0.6944
vn -0.3874 -0.5753 0.7204
vn 0.2964 0.6558 0.6943
vn -0.3163 -0.6165 0.7210
vn 0.2197 0.6850 0.6947
vn -0.2390 -0.6502 0.7212
vn 0.1431 0.7043 0.6953
vn 0.0694 0.7146 0.6961
vn -0.1584 -0.6747 0.7209
vn 0.0002 0.7173 0.6967
vn -0.0780 -0.6892 0.7203
vn -0.0688 0.7145 0.6962
vn -0.0045 -0.6958 0.7182
vn -0.1418 0.7045 0.6954
vn 0.0598 -0.6944 0.7171
vn -0.2180 0.6855 0.6947
vn 0.1213 -0.6859 0.7175
vn -0.2943 0.6567 0.6944
vn 0.1836 -0.6717 0.7177
vn -0.3677 0.6185 0.6944
vn 0.2452 -0.6517 0.7178
vn -0.4353 0.5726 0.6947
vn 0.3045 -0.6263 0.7177
vn -0.4967 0.5203 0.6947
vn 0.3602 -0.5964 0.7174
vn -0.5523 0.4611 0.6945
vn 0.4128 -0.5608 0.7177
vn -0.5998 0.3964 0.6950
vn 0.4640 -0.5184 0.7183
vn -0.6377 0.3305 0.6958
vn 0.5282 -0.4857 -0.6965
vn 0.5546 -0.4213 0.7176
vn -0.6662 0.2661 0.6967
vn 0.5905 -0.3704 0.7170
vn 0.4553 -0.6589 -0.5988
vn -0.6289 -0.5299 -0.5689
vn -0.7000 0.1484 -0.6986
vn 0.6437 -0.2711 -0.7156
vn 0.6201 -0.3199 -0.7163
vn -0.6865 0.2049 -0.6976
vn 0.4603 -0.6563 -0.5979
vn -0.5774 -0.5774 -0.5774
vn -0.7138 0.3118 -0.6272
vn -0.4838 0.5128 -0.7092
vn -0.3876 0.6897 -0.6117
vn 0.6776 0.4753 -0.5612
vn -0.5889 0.3803 -0.7131
vn -0.5771 0.4194 0.7008
vn -0.5412 0.4442 -0.7140
vn -0.5226 0.4868 0.6999
vn -0.4791 0.5094 -0.7148
vn -0.4524 0.5536 0.6992
vn -0.4041 0.5708 -0.7148
vn -0.3738 0.6083 0.7002
vn -0.3284 0.6181 -0.7142
vn -0.2949 0.6503 0.7001
vn -0.2488 0.6543 -0.7142
vn -0.2123 0.6815 0.7003
vn -0.1677 0.6799 -0.7139
vn -0.1299 0.7015 0.7007
vn -0.0924 0.6959 -0.7122
vn -0.0666 0.7076 0.7035
vn -0.0460 0.7028 -0.7099
vn -0.0308 0.7086 0.7049
vn -0.0184 0.7051 -0.7089
vn -0.0085 0.7085 0.7057
vn -0.0020 0.7065 -0.7077
vn 0.2031 0.0872 -0.9753
vn -0.4972 0.5062 0.7047
vn -0.5052 0.4906 -0.7100
vn -0.5235 0.4804 0.7037
vn -0.5337 0.4572 -0.7114
vn -0.5516 0.4338 -0.7124
vn 0.5237 -0.4806 -0.7034
vn -0.5723 0.4042 -0.7135
vn 0.5400 -0.4625 -0.7032
vn -0.5948 0.3687 -0.7143
vn 0.5568 -0.4427 -0.7028
vn -0.6176 0.3270 -0.7153
vn 0.5745 -0.4202 -0.7024
vn -0.6398 0.2780 -0.7164
vn 0.5928 -0.3947 -0.7020
vn 0.6116 -0.3658 -0.7015
vn -0.6604 0.2209 -0.7177
vn 0.6307 -0.3331 -0.7009
vn -0.6776 0.1550 -0.7189
vn 0.6468 -0.2992 -0.7015
vn -0.6892 0.0808 -0.7201
vn 0.6627 -0.2644 -0.7007
vn 0.6772 -0.2252 -0.7005
vn -0.6949 0.0053 -0.7191
vn 0.6899 -0.1835 -0.7002
vn 0.7004 -0.1398 -0.7000
vn -0.6929 -0.0646 -0.7181
vn 0.7081 -0.0942 -0.6998
vn 0.7128 -0.0474 -0.6998
vn -0.6820 -0.1336 -0.7191
vn 0.7168 0.0081 -0.6972
vn -0.6629 -0.2059 -0.7199
vn 0.7151 0.0821 -0.6942
vn 0.7007 0.1667 -0.6937
vn -0.6349 -0.2794 -0.7203
vn 0.6753 0.2507 -0.6936
vn 0.6398 0.3305 -0.6939
vn -0.5980 -0.3511 -0.7205
vn 0.5963 0.4026 -0.6945
vn -0.5534 -0.4182 -0.7203
vn 0.5477 0.4653 -0.6953
vn -0.5043 -0.4777 -0.7193
vn 0.4958 0.5199 -0.6956
vn 0.4374 0.5710 -0.6947
vn -0.4499 -0.5290 -0.7195
vn 0.3699 0.6173 -0.6944
vn -0.3874 -0.5753 -0.7204
vn 0.2964 0.6558 -0.6943
vn -0.3163 -0.6165 -0.7210
vn 0.2197 0.6850 -0.6947
vn -0.2390 -0.6502 -0.7212
vn 0.1431 0.7043 -0.6953
vn 0.0694 0.7146 -0.6961
vn -0.1584 -0.6747 -0.7209
vn 0.0002 0.7173 -0.6968
vn -0.0780 -0.6892 -0.7203
vn -0.0688 0.7145 -0.6962
vn -0.0045 -0.6958 -0.7182
vn -0.1418 0.7045 -0.6954
vn 0.0598 -0.6944 -0.7171
vn -0.2180 0.6855 -0.6947
vn 0.1213 -0.6859 -0.7175
vn -0.2943 0.6567 -0.6944
vn 0.1836 -0.6717 -0.7177
vn -0.3677 0.6185 -0.6944
vn 0.2452 -0.6517 -0.7178
vn -0.4353 0.5726 -0.6947
vn 0.3045 -0.6263 -0.7177
vn -0.4967 0.5203 -0.6947
vn 0.3602 -0.5964 -0.7174
vn -0.5523 0.4611 -0.6945
vn 0.4128 -0.5608 -0.7177
vn -0.5998 0.3964 -0.6950
vn 0.4640 -0.5184 -0.7183
vn -0.6377 0.3305 -0.6958
vn 0.5282 -0.4857 0.6965
vn 0.5546 -0.4213 -0.7176
vn -0.6662 0.2661 -0.6967
vn 0.5905 -0.3704 -0.7170
# 224 vertex normals

o Text002
g Text002
s 1
f -224//-224 -223//-223 -222//-222 -221//-221 
f -224//-224 -221//-221 -220//-220 -219//-219 
f -218//-218 -217//-217 -216//-216 -215//-215 
f -216//-216 -214//-214 -213//-213 -212//-212 
f -216//-216 -212//-212 -211//-211 -210//-210 
f -216//-216 -210//-210 -209//-209 -208//-208 
f -216//-216 -208//-208 -207//-207 -206//-206 
f -216//-216 -206//-206 -205//-205 -204//-204 
f -216//-216 -204//-204 -203//-203 -202//-202 
f -216//-216 -202//-202 -201//-201 -200//-200 
f -216//-216 -200//-200 -199//-199 -198//-198 
f -216//-216 -198//-198 -197//-197 -196//-196 
f -216//-216 -196//-196 -195//-195 -194//-194 
f -216//-216 -194//-194 -193//-193 -192//-192 
f -216//-216 -192//-192 -191//-191 -215//-215 
f -190//-190 -215//-215 -191//-191 -189//-189 
f -188//-188 -189//-189 -191//-191 -187//-187 
f -186//-186 -187//-187 -191//-191 -185//-185 
f -184//-184 -186//-186 -185//-185 -183//-183 
f -182//-182 -184//-184 -183//-183 -181//-181 
f -180//-180 -182//-182 -181//-181 -179//-179 
f -178//-178 -180//-180 -179//-179 -177//-177 
f -178//-178 -177//-177 -176//-176 -175//-175 
f -175//-175 -176//-176 -174//-174 -173//-173 
f -173//-173 -174//-174 -172//-172 -171//-171 
f -171//-171 -172//-172 -170//-170 -169//-169 
f -168//-168 -171//-171 -169//-169 -167//-167 
f -168//-168 -167//-167 -166//-166 -165//-165 
f -165//-165 -166//-166 -164//-164 -163//-163 
f -162//-162 -165//-165 -163//-163 -161//-161 
f -160//-160 -162//-162 -161//-161 -159//-159 
f -160//-160 -159//-159 -158//-158 -157//-157 
f -157//-157 -158//-158 -156//-156 -155//-155 
f -154//-154 -157//-157 -155//-155 -153//-153 
f -152//-152 -154//-154 -153//-153 -151//-151 
f -150//-150 -152//-152 -151//-151 -149//-149 
f -150//-150 -149//-149 -148//-148 -147//-147 
f -147//-147 -148//-148 -146//-146 -145//-145 
f -145//-145 -146//-146 -144//-144 -143//-143 
f -143//-143 -144//-144 -142//-142 -141//-141 
f -141//-141 -142//-142 -140//-140 -139//-139 
f -138//-138 -141//-141 -139//-139 -137//-137 
f -136//-136 -138//-138 -137//-137 -135//-135 
f -134//-134 -136//-136 -135//-135 -133//-133 
f -132//-132 -134//-134 -133//-133 -131//-131 
f -130//-130 -132//-132 -131//-131 -129//-129 
f -128//-128 -130//-130 -129//-129 -127//-127 
f -126//-126 -128//-128 -127//-127 -125//-125 
f -124//-124 -126//-126 -125//-125 -123//-123 
f -122//-122 -124//-124 -123//-123 -121//-121 
f -120//-120 -122//-122 -121//-121 -119//-119 
f -118//-118 -120//-120 -119//-119 -117//-117 
f -116//-116 -118//-118 -117//-117 -115//-115 
f -115//-115 -117//-117 -114//-114 -113//-113 
f -113//-113 -114//-114 -219//-219 -220//-220 
f -112//-112 -111//-111 -110//-110 -109//-109 
f -108//-108 -109//-109 -110//-110 -107//-107 
f -106//-106 -105//-105 -104//-104 -103//-103 
f -102//-102 -101//-101 -106//-106 -100//-100 
f -99//-99 -100//-100 -106//-106 -98//-98 
f -97//-97 -98//-98 -106//-106 -96//-96 
f -95//-95 -96//-96 -106//-106 -94//-94 
f -93//-93 -94//-94 -106//-106 -92//-92 
f -91//-91 -92//-92 -106//-106 -90//-90 
f -89//-89 -90//-90 -106//-106 -88//-88 
f -87//-87 -88//-88 -106//-106 -86//-86 
f -85//-85 -86//-86 -106//-106 -84//-84 
f -83//-83 -84//-84 -106//-106 -82//-82 
f -81//-81 -82//-82 -106//-106 -80//-80 
f -79//-79 -80//-80 -106//-106 -103//-103 
f -79//-79 -103//-103 -78//-78 -77//-77 
f -79//-79 -77//-77 -76//-76 -75//-75 
f -79//-79 -75//-75 -74//-74 -73//-73 
f -73//-73 -74//-74 -72//-72 -71//-71 
f -71//-71 -72//-72 -70//-70 -69//-69 
f -69//-69 -70//-70 -68//-68 -67//-67 
f -67//-67 -68//-68 -66//-66 -65//-65 
f -64//-64 -65//-65 -66//-66 -63//-63 
f -62//-62 -64//-64 -63//-63 -61//-61 
f -60//-60 -62//-62 -61//-61 -59//-59 
f -58//-58 -60//-60 -59//-59 -57//-57 
f -57//-57 -59//-59 -56//-56 -55//-55 
f -54//-54 -55//-55 -56//-56 -53//-53 
f -52//-52 -54//-54 -53//-53 -51//-51 
f -51//-51 -53//-53 -50//-50 -49//-49 
f -49//-49 -50//-50 -48//-48 -47//-47 
f -46//-46 -47//-47 -48//-48 -45//-45 
f -44//-44 -46//-46 -45//-45 -43//-43 
f -43//-43 -45//-45 -42//-42 -41//-41 
f -41//-41 -42//-42 -40//-40 -39//-39 
f -39//-39 -40//-40 -38//-38 -37//-37 
f -36//-36 -37//-37 -38//-38 -35//-35 
f -34//-34 -36//-36 -35//-35 -33//-33 
f -32//-32 -34//-34 -33//-33 -31//-31 
f -30//-30 -32//-32 -31//-31 -29//-29 
f -28//-28 -30//-30 -29//-29 -27//-27 
f -27//-27 -29//-29 -26//-26 -25//-25 
f -25//-25 -26//-26 -24//-24 -23//-23 
f -23//-23 -24//-24 -22//-22 -21//-21 
f -21//-21 -22//-22 -20//-20 -19//-19 
f -19//-19 -20//-20 -18//-18 -17//-17 
f -17//-17 -18//-18 -16//-16 -15//-15 
f -15//-15 -16//-16 -14//-14 -13//-13 
f -13//-13 -14//-14 -12//-12 -11//-11 
f -11//-11 -12//-12 -10//-10 -9//-9 
f -9//-9 -10//-10 -8//-8 -7//-7 
f -7//-7 -8//-8 -6//-6 -5//-5 
f -5//-5 -6//-6 -4//-4 -3//-3 
f -2//-2 -5//-5 -3//-3 -1//-1 
f -107//-107 -2//-2 -1//-1 -108//-108 
s 2
f -223//-223 -224//-224 -110//-110 -111//-111 
s 4
f -222//-222 -223//-223 -111//-111 -112//-112 
s 2
f -221//-221 -222//-222 -112//-112 -109//-109 
f -220//-220 -221//-221 -109//-109 -108//-108 
s 4
f -217//-217 -218//-218 -104//-104 -105//-105 
s 2
f -216//-216 -217//-217 -105//-105 -106//-106 
f -218//-218 -215//-215 -103//-103 -104//-104 
s 4
f -214//-214 -216//-216 -106//-106 -101//-101 
s 2
f -213//-213 -214//-214 -101//-101 -102//-102 
s 4
f -212//-212 -213//-213 -102//-102 -100//-100 
f -211//-211 -212//-212 -100//-100 -99//-99 
f -210//-210 -211//-211 -99//-99 -98//-98 
f -209//-209 -210//-210 -98//-98 -97//-97 
f -208//-208 -209//-209 -97//-97 -96//-96 
f -207//-207 -208//-208 -96//-96 -95//-95 
f -206//-206 -207//-207 -95//-95 -94//-94 
f -205//-205 -206//-206 -94//-94 -93//-93 
f -204//-204 -205//-205 -93//-93 -92//-92 
f -203//-203 -204//-204 -92//-92 -91//-91 
f -202//-202 -203//-203 -91//-91 -90//-90 
f -201//-201 -202//-202 -90//-90 -89//-89 
f -200//-200 -201//-201 -89//-89 -88//-88 
f -199//-199 -200//-200 -88//-88 -87//-87 
f -198//-198 -199//-199 -87//-87 -86//-86 
f -197//-197 -198//-198 -86//-86 -85//-85 
f -196//-196 -197//-197 -85//-85 -84//-84 
f -195//-195 -196//-196 -84//-84 -83//-83 
f -194//-194 -195//-195 -83//-83 -82//-82 
f -193//-193 -194//-194 -82//-82 -81//-81 
f -192//-192 -193//-193 -81//-81 -80//-80 
f -191//-191 -192//-192 -80//-80 -79//-79 
s 2
f -215//-215 -190//-190 -78//-78 -103//-103 
f -190//-190 -189//-189 -77//-77 -78//-78 
f -189//-189 -188//-188 -76//-76 -77//-77 
f -188//-188 -187//-187 -75//-75 -76//-76 
f -187//-187 -186//-186 -74//-74 -75//-75 
f -185//-185 -191//-191 -79//-79 -73//-73 
f -186//-186 -184//-184 -72//-72 -74//-74 
f -183//-183 -185//-185 -73//-73 -71//-71 
f -184//-184 -182//-182 -70//-70 -72//-72 
f -181//-181 -183//-183 -71//-71 -69//-69 
f -182//-182 -180//-180 -68//-68 -70//-70 
f -179//-179 -181//-181 -69//-69 -67//-67 
f -180//-180 -178//-178 -66//-66 -68//-68 
f -177//-177 -179//-179 -67//-67 -65//-65 
f -176//-176 -177//-177 -65//-65 -64//-64 
f -178//-178 -175//-175 -63//-63 -66//-66 
f -174//-174 -176//-176 -64//-64 -62//-62 
f -175//-175 -173//-173 -61//-61 -63//-63 
f -172//-172 -174//-174 -62//-62 -60//-60 
f -173//-173 -171//-171 -59//-59 -61//-61 
f -170//-170 -172//-172 -60//-60 -58//-58 
f -169//-169 -170//-170 -58//-58 -57//-57 
f -171//-171 -168//-168 -56//-56 -59//-59 
f -167//-167 -169//-169 -57//-57 -55//-55 
f -166//-166 -167//-167 -55//-55 -54//-54 
f -168//-168 -165//-165 -53//-53 -56//-56 
f -164//-164 -166//-166 -54//-54 -52//-52 
f -163//-163 -164//-164 -52//-52 -51//-51 
f -165//-165 -162//-162 -50//-50 -53//-53 
f -161//-161 -163//-163 -51//-51 -49//-49 
f -162//-162 -160//-160 -48//-48 -50//-50 
f -159//-159 -161//-161 -49//-49 -47//-47 
f -158//-158 -159//-159 -47//-47 -46//-46 
f -160//-160 -157//-157 -45//-45 -48//-48 
f -156//-156 -158//-158 -46//-46 -44//-44 
f -155//-155 -156//-156 -44//-44 -43//-43 
f -157//-157 -154//-154 -42//-42 -45//-45 
f -153//-153 -155//-155 -43//-43 -41//-41 
f -154//-154 -152//-152 -40//-40 -42//-42 
f -151//-151 -153//-153 -41//-41 -39//-39 
f -152//-152 -150//-150 -38//-38 -40//-40 
f -149//-149 -151//-151 -39//-39 -37//-37 
f -148//-148 -149//-149 -37//-37 -36//-36 
f -150//-150 -147//-147 -35//-35 -38//-38 
f -146//-146 -148//-148 -36//-36 -34//-34 
f -147//-147 -145//-145 -33//-33 -35//-35 
f -144//-144 -146//-146 -34//-34 -32//-32 
f -145//-145 -143//-143 -31//-31 -33//-33 
f -142//-142 -144//-144 -32//-32 -30//-30 
f -143//-143 -141//-141 -29//-29 -31//-31 
f -140//-140 -142//-142 -30//-30 -28//-28 
f -139//-139 -140//-140 -28//-28 -27//-27 
f -141//-141 -138//-138 -26//-26 -29//-29 
f -137//-137 -139//-139 -27//-27 -25//-25 
f -138//-138 -136//-136 -24//-24 -26//-26 
f -135//-135 -137//-137 -25//-25 -23//-23 
f -136//-136 -134//-134 -22//-22 -24//-24 
f -133//-133 -135//-135 -23//-23 -21//-21 
f -134//-134 -132//-132 -20//-20 -22//-22 
f -131//-131 -133//-133 -21//-21 -19//-19 
f -132//-132 -130//-130 -18//-18 -20//-20 
f -129//-129 -131//-131 -19//-19 -17//-17 
f -130//-130 -128//-128 -16//-16 -18//-18 
f -127//-127 -129//-129 -17//-17 -15//-15 
f -128//-128 -126//-126 -14//-14 -16//-16 
f -125//-125 -127//-127 -15//-15 -13//-13 
f -126//-126 -124//-124 -12//-12 -14//-14 
f -123//-123 -125//-125 -13//-13 -11//-11 
f -124//-124 -122//-122 -10//-10 -12//-12 
f -121//-121 -123//-123 -11//-11 -9//-9 
f -122//-122 -120//-120 -8//-8 -10//-10 
f -119//-119 -121//-121 -9//-9 -7//-7 
f -120//-120 -118//-118 -6//-6 -8//-8 
f -117//-117 -119//-119 -7//-7 -5//-5 
f -118//-118 -116//-116 -4//-4 -6//-6 
f -116//-116 -115//-115 -3//-3 -4//-4 
f -114//-114 -117//-117 -5//-5 -2//-2 
f -115//-115 -113//-113 -1//-1 -3//-3 
f -219//-219 -114//-114 -2//-2 -107//-107 
f -113//-113 -220//-220 -108//-108 -1//-1 
f -224//-224 -219//-219 -107//-107 -110//-110 
# 222 polygons

