# 3ds Max Wavefront OBJ Exporter v0.97b - (c)2007 guruware
# File Created: 29.01.2019 11:48:09

#
# object Text005
#

v  0.2539 0.9459 0.0832
v  0.3165 1.0815 0.0832
v  -0.0723 1.0815 0.0832
v  -0.0736 0.9459 0.0832
v  -0.3131 0.1054 0.0832
v  -0.3150 0.0995 0.0832
v  -0.3161 0.0935 0.0832
v  -0.3105 0.1110 0.0832
v  -0.3165 0.0873 0.0832
v  -0.3072 0.1164 0.0832
v  -0.3030 0.1215 0.0832
v  -0.2982 0.1265 0.0832
v  -0.2927 0.1310 0.0832
v  -0.2869 0.1348 0.0832
v  -0.3156 0.0761 0.0832
v  -0.2807 0.1380 0.0832
v  -0.2741 0.1404 0.0832
v  -0.2671 0.1421 0.0832
v  -0.3129 0.0652 0.0832
v  -0.2598 0.1432 0.0832
v  -0.3083 0.0546 0.0832
v  -0.2520 0.1435 0.0832
v  -0.2462 0.1434 0.0832
v  -0.3020 0.0442 0.0832
v  -0.2406 0.1430 0.0832
v  -0.2352 0.1424 0.0832
v  -0.2939 0.0341 0.0832
v  -0.2300 0.1415 0.0832
v  -0.2250 0.1403 0.0832
v  -0.2203 0.1389 0.0832
v  -0.2157 0.1372 0.0832
v  -0.2109 0.1350 0.0832
v  -0.2839 0.0243 0.0832
v  -0.2051 0.1319 0.0832
v  -0.1984 0.1281 0.0832
v  -0.2721 0.0148 0.0832
v  -0.1908 0.1235 0.0832
v  -0.2584 0.0061 0.0832
v  -0.1824 0.1180 0.0832
v  -0.2424 -0.0013 0.0832
v  -0.1730 0.1118 0.0832
v  -0.2243 -0.0073 0.0832
v  -0.1628 0.1047 0.0832
v  -0.2040 -0.0120 0.0832
v  -0.1456 0.0938 0.0832
v  -0.1816 -0.0154 0.0832
v  -0.1283 0.0845 0.0832
v  -0.1570 -0.0174 0.0832
v  -0.1110 0.0769 0.0832
v  -0.1302 -0.0181 0.0832
v  -0.0936 0.0710 0.0832
v  -0.1026 -0.0172 0.0832
v  -0.0762 0.0668 0.0832
v  -0.0753 -0.0145 0.0832
v  -0.0586 0.0642 0.0832
v  -0.0481 -0.0100 0.0832
v  -0.0411 0.0633 0.0832
v  -0.0212 -0.0038 0.0832
v  -0.0148 0.0647 0.0832
v  0.0056 0.0043 0.0832
v  0.0106 0.0691 0.0832
v  0.0322 0.0141 0.0832
v  0.0350 0.0763 0.0832
v  0.0585 0.0257 0.0832
v  0.0768 0.0350 0.0832
v  0.0585 0.0864 0.0832
v  0.0946 0.0451 0.0832
v  0.0811 0.0993 0.0832
v  0.1118 0.0560 0.0832
v  0.1286 0.0678 0.0832
v  0.1028 0.1152 0.0832
v  0.1449 0.0803 0.0832
v  0.1235 0.1339 0.0832
v  0.1607 0.0937 0.0832
v  0.1761 0.1078 0.0832
v  0.1423 0.1547 0.0832
v  0.1908 0.1228 0.0832
v  0.2048 0.1387 0.0832
v  0.1582 0.1768 0.0832
v  0.2180 0.1555 0.0832
v  0.1712 0.2001 0.0832
v  0.2305 0.1732 0.0832
v  0.2423 0.1917 0.0832
v  0.1813 0.2247 0.0832
v  0.2533 0.2111 0.0832
v  0.1886 0.2505 0.0832
v  0.2636 0.2314 0.0832
v  0.2729 0.2524 0.0832
v  0.1929 0.2776 0.0832
v  0.2807 0.2739 0.0832
v  0.1943 0.3060 0.0832
v  0.2871 0.2959 0.0832
v  0.2920 0.3184 0.0832
v  0.1930 0.3337 0.0832
v  0.2956 0.3415 0.0832
v  0.1892 0.3610 0.0832
v  0.2977 0.3651 0.0832
v  0.2984 0.3892 0.0832
v  0.1827 0.3877 0.0832
v  0.2962 0.4303 0.0832
v  0.1737 0.4139 0.0832
v  0.2897 0.4699 0.0832
v  0.1621 0.4395 0.0832
v  0.2788 0.5079 0.0832
v  0.1480 0.4646 0.0832
v  0.2635 0.5443 0.0832
v  0.1312 0.4891 0.0832
v  0.2439 0.5792 0.0832
v  0.1122 0.5126 0.0832
v  0.2200 0.6125 0.0832
v  0.0912 0.5345 0.0832
v  0.1916 0.6443 0.0832
v  0.0683 0.5549 0.0832
v  0.1543 0.6783 0.0832
v  0.0434 0.5736 0.0832
v  0.1133 0.7085 0.0832
v  0.0166 0.5908 0.0832
v  0.0688 0.7348 0.0832
v  -0.0122 0.6064 0.0832
v  0.0207 0.7572 0.0832
v  -0.0430 0.6204 0.0832
v  -0.0691 0.6301 0.0832
v  -0.0309 0.7758 0.0832
v  -0.0979 0.6385 0.0832
v  -0.0862 0.7904 0.0832
v  -0.1292 0.6456 0.0832
v  -0.1631 0.6516 0.0832
v  -0.1451 0.8013 0.0832
v  -0.1996 0.6563 0.0832
v  -0.2386 0.6597 0.0832
v  -0.2802 0.6619 0.0832
v  -0.0723 1.0815 0.0000
v  0.3165 1.0815 0.0000
v  0.2539 0.9459 0.0000
v  -0.0736 0.9459 0.0000
v  -0.3161 0.0935 0.0000
v  -0.3150 0.0995 0.0000
v  -0.3131 0.1054 0.0000
v  -0.3105 0.1110 0.0000
v  -0.3165 0.0873 0.0000
v  -0.3072 0.1164 0.0000
v  -0.3030 0.1215 0.0000
v  -0.2982 0.1265 0.0000
v  -0.2927 0.1310 0.0000
v  -0.2869 0.1348 0.0000
v  -0.3156 0.0761 0.0000
v  -0.2807 0.1380 0.0000
v  -0.2741 0.1404 0.0000
v  -0.2671 0.1421 0.0000
v  -0.3129 0.0652 0.0000
v  -0.2598 0.1432 0.0000
v  -0.3083 0.0546 0.0000
v  -0.2520 0.1435 0.0000
v  -0.2462 0.1434 0.0000
v  -0.3020 0.0442 0.0000
v  -0.2406 0.1430 0.0000
v  -0.2352 0.1424 0.0000
v  -0.2939 0.0341 0.0000
v  -0.2300 0.1415 0.0000
v  -0.2250 0.1403 0.0000
v  -0.2203 0.1389 0.0000
v  -0.2157 0.1372 0.0000
v  -0.2109 0.1350 0.0000
v  -0.2839 0.0243 0.0000
v  -0.2051 0.1319 0.0000
v  -0.1984 0.1281 0.0000
v  -0.2721 0.0148 0.0000
v  -0.1908 0.1235 0.0000
v  -0.2584 0.0061 0.0000
v  -0.1824 0.1180 0.0000
v  -0.2424 -0.0013 0.0000
v  -0.1730 0.1118 0.0000
v  -0.2243 -0.0073 0.0000
v  -0.1628 0.1047 0.0000
v  -0.2040 -0.0120 0.0000
v  -0.1456 0.0938 0.0000
v  -0.1816 -0.0154 0.0000
v  -0.1283 0.0845 0.0000
v  -0.1570 -0.0174 0.0000
v  -0.1110 0.0769 0.0000
v  -0.1302 -0.0181 0.0000
v  -0.0936 0.0710 0.0000
v  -0.1026 -0.0172 0.0000
v  -0.0762 0.0668 0.0000
v  -0.0753 -0.0145 0.0000
v  -0.0586 0.0642 0.0000
v  -0.0481 -0.0100 0.0000
v  -0.0411 0.0633 0.0000
v  -0.0212 -0.0038 0.0000
v  -0.0148 0.0647 0.0000
v  0.0056 0.0043 0.0000
v  0.0106 0.0691 0.0000
v  0.0322 0.0141 0.0000
v  0.0350 0.0763 0.0000
v  0.0585 0.0257 0.0000
v  0.0768 0.0350 0.0000
v  0.0585 0.0864 0.0000
v  0.0946 0.0451 0.0000
v  0.0811 0.0993 0.0000
v  0.1118 0.0560 0.0000
v  0.1286 0.0678 0.0000
v  0.1028 0.1152 0.0000
v  0.1449 0.0803 0.0000
v  0.1235 0.1339 0.0000
v  0.1607 0.0937 0.0000
v  0.1761 0.1078 0.0000
v  0.1423 0.1547 0.0000
v  0.1908 0.1228 0.0000
v  0.2048 0.1387 0.0000
v  0.1582 0.1768 0.0000
v  0.2180 0.1555 0.0000
v  0.1712 0.2001 0.0000
v  0.2305 0.1732 0.0000
v  0.2423 0.1917 0.0000
v  0.1813 0.2247 0.0000
v  0.2533 0.2111 0.0000
v  0.1886 0.2505 0.0000
v  0.2636 0.2314 0.0000
v  0.2729 0.2524 0.0000
v  0.1929 0.2776 0.0000
v  0.2807 0.2739 0.0000
v  0.1943 0.3060 0.0000
v  0.2871 0.2959 0.0000
v  0.2920 0.3184 0.0000
v  0.1930 0.3337 0.0000
v  0.2956 0.3415 0.0000
v  0.1892 0.3610 0.0000
v  0.2977 0.3651 0.0000
v  0.2984 0.3892 0.0000
v  0.1827 0.3877 0.0000
v  0.2962 0.4303 0.0000
v  0.1737 0.4139 0.0000
v  0.2897 0.4699 0.0000
v  0.1621 0.4395 0.0000
v  0.2788 0.5079 0.0000
v  0.1480 0.4646 0.0000
v  0.2635 0.5443 0.0000
v  0.1312 0.4891 0.0000
v  0.2439 0.5792 0.0000
v  0.1122 0.5126 0.0000
v  0.2200 0.6125 0.0000
v  0.0912 0.5345 0.0000
v  0.1916 0.6443 0.0000
v  0.0683 0.5549 0.0000
v  0.1543 0.6783 0.0000
v  0.0434 0.5736 0.0000
v  0.1133 0.7085 0.0000
v  0.0166 0.5908 0.0000
v  0.0688 0.7348 0.0000
v  -0.0122 0.6064 0.0000
v  0.0207 0.7572 0.0000
v  -0.0430 0.6204 0.0000
v  -0.0691 0.6301 0.0000
v  -0.0309 0.7758 0.0000
v  -0.0979 0.6385 0.0000
v  -0.0862 0.7904 0.0000
v  -0.1292 0.6456 0.0000
v  -0.1631 0.6516 0.0000
v  -0.1451 0.8013 0.0000
v  -0.1996 0.6563 0.0000
v  -0.2386 0.6597 0.0000
v  -0.2802 0.6619 0.0000
# 262 vertices

vn 0.4297 -0.6716 0.6036
vn 0.6991 0.4472 0.5580
vn -0.4196 0.6763 0.6055
vn 0.2804 -0.4514 0.8471
vn -0.6708 0.2635 0.6932
vn -0.6988 0.1768 0.6931
vn -0.7152 0.0877 0.6934
vn -0.6328 0.3438 0.6938
vn -0.7222 -0.0075 0.6916
vn -0.5877 0.4149 0.6946
vn -0.5387 0.4752 0.6957
vn -0.4870 0.5280 0.6958
vn -0.4281 0.5780 0.6947
vn -0.3599 0.6230 0.6945
vn -0.7150 -0.1172 0.6892
vn -0.2867 0.6598 0.6946
vn -0.2114 0.6872 0.6951
vn -0.1371 0.7051 0.6957
vn -0.6865 -0.2301 0.6897
vn -0.0663 0.7145 0.6965
vn -0.6425 -0.3312 0.6910
vn -0.0080 0.7144 0.6996
vn 0.0326 0.7116 0.7018
vn -0.5892 -0.4159 0.6927
vn 0.0672 0.7095 0.7015
vn 0.1040 0.7054 0.7011
vn -0.5329 -0.4833 0.6946
vn 0.1431 0.6989 0.7007
vn 0.1840 0.6897 0.7004
vn 0.2266 0.6772 0.7000
vn 0.2721 0.6611 0.6992
vn 0.3129 0.6410 0.7009
vn -0.4781 -0.5353 0.6964
vn 0.3422 0.6237 0.7028
vn 0.3626 0.6108 0.7039
vn -0.4197 -0.5846 0.6943
vn 0.3776 0.6008 0.7046
vn -0.3453 -0.6332 0.6927
vn 0.3890 0.5928 0.7052
vn -0.2653 -0.6685 0.6948
vn 0.3980 0.5863 0.7055
vn -0.1947 -0.6905 0.6967
vn 0.3880 0.5861 0.7113
vn -0.1338 -0.7031 0.6984
vn 0.3528 0.6030 0.7155
vn -0.0820 -0.7097 0.6997
vn 0.3052 0.6276 0.7162
vn -0.0380 -0.7123 0.7008
vn 0.2523 0.6500 0.7169
vn 0.0026 -0.7135 0.7006
vn 0.1947 0.6690 0.7173
vn 0.0465 -0.7128 0.6999
vn 0.1330 0.6836 0.7177
vn 0.0930 -0.7082 0.6998
vn 0.0684 0.6928 0.7179
vn 0.1389 -0.7006 0.6999
vn -0.0012 0.6947 0.7193
vn 0.1837 -0.6901 0.7000
vn -0.0774 0.6894 0.7202
vn 0.2269 -0.6769 0.7002
vn -0.1566 0.6754 0.7206
vn 0.2681 -0.6615 0.7004
vn -0.2352 0.6521 0.7207
vn 0.3057 -0.6444 0.7009
vn 0.3375 -0.6272 0.7019
vn -0.3101 0.6204 0.7204
vn 0.3662 -0.6109 0.7019
vn -0.3787 0.5818 0.7198
vn 0.3942 -0.5932 0.7019
vn 0.4211 -0.5744 0.7020
vn -0.4392 0.5388 0.7189
vn 0.4470 -0.5544 0.7020
vn -0.4919 0.4916 0.7186
vn 0.4716 -0.5336 0.7021
vn 0.4965 -0.5111 0.7016
vn -0.5400 0.4364 0.7197
vn 0.5226 -0.4852 0.7011
vn 0.5477 -0.4565 0.7012
vn -0.5851 0.3724 0.7204
vn 0.5707 -0.4271 0.7013
vn -0.6242 0.3015 0.7207
vn 0.5917 -0.3973 0.7015
vn 0.6105 -0.3673 0.7016
vn -0.6555 0.2259 0.7206
vn 0.6273 -0.3375 0.7018
vn -0.6777 0.1486 0.7202
vn 0.6446 -0.3052 0.7009
vn 0.6631 -0.2659 0.6998
vn -0.6907 0.0727 0.7195
vn 0.6792 -0.2216 0.6998
vn -0.6957 0.0016 0.7183
vn 0.6921 -0.1765 0.6999
vn 0.7020 -0.1313 0.7000
vn -0.6931 -0.0651 0.7179
vn 0.7088 -0.0865 0.7001
vn -0.6836 -0.1306 0.7180
vn 0.7125 -0.0426 0.7003
vn 0.7161 0.0084 0.6980
vn -0.6681 -0.1952 0.7180
vn 0.7149 0.0778 0.6948
vn -0.6471 -0.2572 0.7177
vn 0.7021 0.1581 0.6943
vn -0.6214 -0.3152 0.7173
vn 0.6791 0.2386 0.6942
vn -0.5922 -0.3682 0.7167
vn 0.6466 0.3159 0.6943
vn -0.5598 -0.4163 0.7165
vn 0.6063 0.3869 0.6948
vn -0.5235 -0.4608 0.7166
vn 0.5604 0.4496 0.6955
vn -0.4839 -0.5025 0.7164
vn 0.5106 0.5053 0.6957
vn -0.4420 -0.5401 0.7162
vn 0.4557 0.5554 0.6956
vn -0.3986 -0.5733 0.7158
vn 0.3962 0.5990 0.6959
vn -0.3549 -0.6019 0.7154
vn 0.3346 0.6350 0.6963
vn -0.3117 -0.6259 0.7149
vn 0.2730 0.6631 0.6969
vn -0.2722 -0.6615 -0.6988
vn -0.2191 -0.6640 0.7149
vn 0.2133 0.6839 0.6977
vn -0.1764 -0.6777 0.7139
vn 0.1567 0.6983 0.6984
vn -0.1387 -0.6873 0.7130
vn -0.1053 -0.6940 0.7122
vn 0.3171 0.1592 0.9350
vn -0.0768 -0.7074 -0.7027
vn -0.0497 -0.7014 0.7111
vn -0.7160 -0.4183 0.5589
vn -0.4196 0.6763 -0.6055
vn 0.6991 0.4472 -0.5580
vn 0.4297 -0.6716 -0.6036
vn 0.2804 -0.4514 -0.8471
vn -0.7152 0.0877 -0.6934
vn -0.6988 0.1768 -0.6931
vn -0.6708 0.2635 -0.6932
vn -0.6328 0.3438 -0.6938
vn -0.7222 -0.0075 -0.6916
vn -0.5877 0.4149 -0.6946
vn -0.5387 0.4752 -0.6957
vn -0.4870 0.5280 -0.6958
vn -0.4281 0.5780 -0.6947
vn -0.3599 0.6230 -0.6945
vn -0.7150 -0.1172 -0.6892
vn -0.2867 0.6598 -0.6946
vn -0.2114 0.6872 -0.6951
vn -0.1371 0.7051 -0.6957
vn -0.6865 -0.2301 -0.6897
vn -0.0663 0.7144 -0.6965
vn -0.6425 -0.3312 -0.6910
vn -0.0080 0.7144 -0.6996
vn 0.0326 0.7115 -0.7019
vn -0.5892 -0.4159 -0.6927
vn 0.0672 0.7095 -0.7015
vn 0.1040 0.7054 -0.7011
vn -0.5329 -0.4833 -0.6946
vn 0.1431 0.6989 -0.7007
vn 0.1840 0.6897 -0.7004
vn 0.2266 0.6772 -0.7000
vn 0.2721 0.6611 -0.6992
vn 0.3129 0.6410 -0.7009
vn -0.4781 -0.5353 -0.6964
vn 0.3422 0.6237 -0.7028
vn 0.3626 0.6108 -0.7039
vn -0.4197 -0.5846 -0.6943
vn 0.3776 0.6008 -0.7046
vn -0.3453 -0.6332 -0.6927
vn 0.3890 0.5928 -0.7052
vn -0.2653 -0.6685 -0.6948
vn 0.3980 0.5863 -0.7055
vn -0.1947 -0.6905 -0.6967
vn 0.3880 0.5861 -0.7113
vn -0.1338 -0.7031 -0.6984
vn 0.3528 0.6030 -0.7155
vn -0.0820 -0.7097 -0.6997
vn 0.3052 0.6276 -0.7162
vn -0.0380 -0.7123 -0.7008
vn 0.2523 0.6500 -0.7169
vn 0.0026 -0.7134 -0.7008
vn 0.1947 0.6690 -0.7173
vn 0.0465 -0.7128 -0.6999
vn 0.1330 0.6836 -0.7177
vn 0.0930 -0.7082 -0.6998
vn 0.0684 0.6928 -0.7179
vn 0.1389 -0.7006 -0.6999
vn -0.0012 0.6947 -0.7193
vn 0.1837 -0.6901 -0.7000
vn -0.0774 0.6894 -0.7202
vn 0.2269 -0.6769 -0.7002
vn -0.1566 0.6754 -0.7206
vn 0.2681 -0.6615 -0.7004
vn -0.2352 0.6521 -0.7207
vn 0.3057 -0.6444 -0.7010
vn 0.3375 -0.6272 -0.7019
vn -0.3101 0.6204 -0.7204
vn 0.3662 -0.6109 -0.7019
vn -0.3787 0.5818 -0.7198
vn 0.3942 -0.5932 -0.7019
vn 0.4211 -0.5744 -0.7020
vn -0.4392 0.5388 -0.7189
vn 0.4470 -0.5544 -0.7020
vn -0.4919 0.4916 -0.7186
vn 0.4716 -0.5336 -0.7021
vn 0.4965 -0.5111 -0.7016
vn -0.5400 0.4364 -0.7197
vn 0.5226 -0.4852 -0.7011
vn 0.5477 -0.4565 -0.7012
vn -0.5851 0.3724 -0.7204
vn 0.5707 -0.4271 -0.7013
vn -0.6242 0.3015 -0.7207
vn 0.5917 -0.3973 -0.7015
vn 0.6105 -0.3673 -0.7016
vn -0.6555 0.2259 -0.7206
vn 0.6273 -0.3375 -0.7019
vn -0.6777 0.1486 -0.7202
vn 0.6446 -0.3052 -0.7009
vn 0.6631 -0.2659 -0.6998
vn -0.6907 0.0727 -0.7195
vn 0.6792 -0.2216 -0.6998
vn -0.6957 0.0016 -0.7183
vn 0.6921 -0.1765 -0.6999
vn 0.7020 -0.1313 -0.7000
vn -0.6931 -0.0651 -0.7179
vn 0.7088 -0.0865 -0.7001
vn -0.6836 -0.1306 -0.7180
vn 0.7125 -0.0426 -0.7003
vn 0.7161 0.0084 -0.6980
vn -0.6681 -0.1952 -0.7180
vn 0.7149 0.0778 -0.6948
vn -0.6471 -0.2572 -0.7177
vn 0.7021 0.1581 -0.6943
vn -0.6214 -0.3152 -0.7173
vn 0.6791 0.2386 -0.6942
vn -0.5922 -0.3682 -0.7167
vn 0.6466 0.3159 -0.6943
vn -0.5598 -0.4163 -0.7165
vn 0.6063 0.3869 -0.6948
vn -0.5235 -0.4608 -0.7166
vn 0.5604 0.4496 -0.6955
vn -0.4839 -0.5025 -0.7164
vn 0.5106 0.5053 -0.6957
vn -0.4420 -0.5401 -0.7162
vn 0.4557 0.5554 -0.6956
vn -0.3986 -0.5733 -0.7158
vn 0.3962 0.5990 -0.6959
vn -0.3549 -0.6019 -0.7154
vn 0.3346 0.6350 -0.6963
vn -0.3117 -0.6259 -0.7149
vn 0.2730 0.6631 -0.6969
vn -0.2722 -0.6615 0.6988
vn -0.2191 -0.6640 -0.7149
vn 0.2133 0.6839 -0.6977
vn -0.1764 -0.6777 -0.7139
vn 0.1567 0.6983 -0.6984
vn -0.1387 -0.6873 -0.7130
vn -0.1053 -0.6940 -0.7122
vn 0.3171 0.1592 -0.9350
vn -0.0768 -0.7074 0.7027
vn -0.0497 -0.7014 -0.7111
vn -0.7160 -0.4183 -0.5589
# 262 vertex normals

o Text005
g Text005
s 1
f -262//-262 -261//-261 -260//-260 -259//-259 
f -258//-258 -257//-257 -256//-256 -255//-255 
f -255//-255 -256//-256 -254//-254 -253//-253 
f -252//-252 -253//-253 -254//-254 -251//-251 
f -250//-250 -251//-251 -254//-254 -249//-249 
f -249//-249 -254//-254 -248//-248 -247//-247 
f -246//-246 -247//-247 -248//-248 -245//-245 
f -245//-245 -248//-248 -244//-244 -243//-243 
f -243//-243 -244//-244 -242//-242 -241//-241 
f -240//-240 -241//-241 -242//-242 -239//-239 
f -238//-238 -240//-240 -239//-239 -237//-237 
f -237//-237 -239//-239 -236//-236 -235//-235 
f -234//-234 -235//-235 -236//-236 -233//-233 
f -232//-232 -233//-233 -236//-236 -231//-231 
f -231//-231 -236//-236 -230//-230 -229//-229 
f -228//-228 -229//-229 -230//-230 -227//-227 
f -226//-226 -228//-228 -227//-227 -225//-225 
f -224//-224 -226//-226 -225//-225 -223//-223 
f -222//-222 -224//-224 -223//-223 -221//-221 
f -220//-220 -222//-222 -221//-221 -219//-219 
f -218//-218 -220//-220 -219//-219 -217//-217 
f -216//-216 -218//-218 -217//-217 -215//-215 
f -214//-214 -216//-216 -215//-215 -213//-213 
f -212//-212 -214//-214 -213//-213 -211//-211 
f -210//-210 -212//-212 -211//-211 -209//-209 
f -208//-208 -210//-210 -209//-209 -207//-207 
f -206//-206 -208//-208 -207//-207 -205//-205 
f -204//-204 -206//-206 -205//-205 -203//-203 
f -202//-202 -204//-204 -203//-203 -201//-201 
f -200//-200 -202//-202 -201//-201 -199//-199 
f -200//-200 -199//-199 -198//-198 -197//-197 
f -197//-197 -198//-198 -196//-196 -195//-195 
f -195//-195 -196//-196 -194//-194 -193//-193 
f -192//-192 -195//-195 -193//-193 -191//-191 
f -190//-190 -192//-192 -191//-191 -189//-189 
f -190//-190 -189//-189 -188//-188 -187//-187 
f -187//-187 -188//-188 -186//-186 -185//-185 
f -184//-184 -187//-187 -185//-185 -183//-183 
f -182//-182 -184//-184 -183//-183 -181//-181 
f -182//-182 -181//-181 -180//-180 -179//-179 
f -179//-179 -180//-180 -178//-178 -177//-177 
f -177//-177 -178//-178 -176//-176 -175//-175 
f -174//-174 -177//-177 -175//-175 -173//-173 
f -172//-172 -174//-174 -173//-173 -171//-171 
f -172//-172 -171//-171 -170//-170 -169//-169 
f -169//-169 -170//-170 -168//-168 -167//-167 
f -167//-167 -168//-168 -166//-166 -165//-165 
f -164//-164 -167//-167 -165//-165 -163//-163 
f -162//-162 -164//-164 -163//-163 -161//-161 
f -160//-160 -162//-162 -161//-161 -159//-159 
f -158//-158 -160//-160 -159//-159 -157//-157 
f -156//-156 -158//-158 -157//-157 -155//-155 
f -154//-154 -156//-156 -155//-155 -153//-153 
f -152//-152 -154//-154 -153//-153 -151//-151 
f -150//-150 -152//-152 -151//-151 -149//-149 
f -148//-148 -150//-150 -149//-149 -147//-147 
f -146//-146 -148//-148 -147//-147 -145//-145 
f -144//-144 -146//-146 -145//-145 -143//-143 
f -142//-142 -144//-144 -143//-143 -141//-141 
f -141//-141 -143//-143 -140//-140 -139//-139 
f -139//-139 -140//-140 -138//-138 -137//-137 
f -136//-136 -137//-137 -138//-138 -135//-135 
f -134//-134 -136//-136 -135//-135 -133//-133 
f -132//-132 -133//-133 -135//-135 -259//-259 
f -260//-260 -132//-132 -259//-259 
f -131//-131 -130//-130 -129//-129 -128//-128 
f -127//-127 -126//-126 -125//-125 -124//-124 
f -123//-123 -127//-127 -124//-124 -122//-122 
f -123//-123 -122//-122 -121//-121 -120//-120 
f -123//-123 -120//-120 -119//-119 -118//-118 
f -117//-117 -123//-123 -118//-118 -116//-116 
f -117//-117 -116//-116 -115//-115 -114//-114 
f -113//-113 -117//-117 -114//-114 -112//-112 
f -111//-111 -113//-113 -112//-112 -110//-110 
f -111//-111 -110//-110 -109//-109 -108//-108 
f -108//-108 -109//-109 -107//-107 -106//-106 
f -105//-105 -108//-108 -106//-106 -104//-104 
f -105//-105 -104//-104 -103//-103 -102//-102 
f -105//-105 -102//-102 -101//-101 -100//-100 
f -99//-99 -105//-105 -100//-100 -98//-98 
f -99//-99 -98//-98 -97//-97 -96//-96 
f -96//-96 -97//-97 -95//-95 -94//-94 
f -94//-94 -95//-95 -93//-93 -92//-92 
f -92//-92 -93//-93 -91//-91 -90//-90 
f -90//-90 -91//-91 -89//-89 -88//-88 
f -88//-88 -89//-89 -87//-87 -86//-86 
f -86//-86 -87//-87 -85//-85 -84//-84 
f -84//-84 -85//-85 -83//-83 -82//-82 
f -82//-82 -83//-83 -81//-81 -80//-80 
f -80//-80 -81//-81 -79//-79 -78//-78 
f -78//-78 -79//-79 -77//-77 -76//-76 
f -76//-76 -77//-77 -75//-75 -74//-74 
f -74//-74 -75//-75 -73//-73 -72//-72 
f -72//-72 -73//-73 -71//-71 -70//-70 
f -70//-70 -71//-71 -69//-69 -68//-68 
f -67//-67 -68//-68 -69//-69 -66//-66 
f -65//-65 -67//-67 -66//-66 -64//-64 
f -63//-63 -65//-65 -64//-64 -62//-62 
f -62//-62 -64//-64 -61//-61 -60//-60 
f -60//-60 -61//-61 -59//-59 -58//-58 
f -57//-57 -58//-58 -59//-59 -56//-56 
f -55//-55 -57//-57 -56//-56 -54//-54 
f -54//-54 -56//-56 -53//-53 -52//-52 
f -52//-52 -53//-53 -51//-51 -50//-50 
f -49//-49 -50//-50 -51//-51 -48//-48 
f -47//-47 -49//-49 -48//-48 -46//-46 
f -45//-45 -47//-47 -46//-46 -44//-44 
f -44//-44 -46//-46 -43//-43 -42//-42 
f -42//-42 -43//-43 -41//-41 -40//-40 
f -39//-39 -40//-40 -41//-41 -38//-38 
f -37//-37 -39//-39 -38//-38 -36//-36 
f -35//-35 -37//-37 -36//-36 -34//-34 
f -34//-34 -36//-36 -33//-33 -32//-32 
f -32//-32 -33//-33 -31//-31 -30//-30 
f -30//-30 -31//-31 -29//-29 -28//-28 
f -28//-28 -29//-29 -27//-27 -26//-26 
f -26//-26 -27//-27 -25//-25 -24//-24 
f -24//-24 -25//-25 -23//-23 -22//-22 
f -22//-22 -23//-23 -21//-21 -20//-20 
f -20//-20 -21//-21 -19//-19 -18//-18 
f -18//-18 -19//-19 -17//-17 -16//-16 
f -16//-16 -17//-17 -15//-15 -14//-14 
f -14//-14 -15//-15 -13//-13 -12//-12 
f -12//-12 -13//-13 -11//-11 -10//-10 
f -9//-9 -12//-12 -10//-10 -8//-8 
f -7//-7 -9//-9 -8//-8 -6//-6 
f -7//-7 -6//-6 -5//-5 -4//-4 
f -4//-4 -5//-5 -3//-3 -2//-2 
f -4//-4 -2//-2 -1//-1 -128//-128 
f -128//-128 -1//-1 -131//-131 
s 2
f -261//-261 -262//-262 -129//-129 -130//-130 
s 4
f -260//-260 -261//-261 -130//-130 -131//-131 
s 2
f -257//-257 -258//-258 -125//-125 -126//-126 
f -256//-256 -257//-257 -126//-126 -127//-127 
f -258//-258 -255//-255 -124//-124 -125//-125 
f -254//-254 -256//-256 -127//-127 -123//-123 
f -255//-255 -253//-253 -122//-122 -124//-124 
f -253//-253 -252//-252 -121//-121 -122//-122 
f -252//-252 -251//-251 -120//-120 -121//-121 
f -251//-251 -250//-250 -119//-119 -120//-120 
f -250//-250 -249//-249 -118//-118 -119//-119 
f -248//-248 -254//-254 -123//-123 -117//-117 
f -249//-249 -247//-247 -116//-116 -118//-118 
f -247//-247 -246//-246 -115//-115 -116//-116 
f -246//-246 -245//-245 -114//-114 -115//-115 
f -244//-244 -248//-248 -117//-117 -113//-113 
f -245//-245 -243//-243 -112//-112 -114//-114 
f -242//-242 -244//-244 -113//-113 -111//-111 
f -243//-243 -241//-241 -110//-110 -112//-112 
f -241//-241 -240//-240 -109//-109 -110//-110 
f -239//-239 -242//-242 -111//-111 -108//-108 
f -240//-240 -238//-238 -107//-107 -109//-109 
f -238//-238 -237//-237 -106//-106 -107//-107 
f -236//-236 -239//-239 -108//-108 -105//-105 
f -237//-237 -235//-235 -104//-104 -106//-106 
f -235//-235 -234//-234 -103//-103 -104//-104 
f -234//-234 -233//-233 -102//-102 -103//-103 
f -233//-233 -232//-232 -101//-101 -102//-102 
f -232//-232 -231//-231 -100//-100 -101//-101 
f -230//-230 -236//-236 -105//-105 -99//-99 
f -231//-231 -229//-229 -98//-98 -100//-100 
f -229//-229 -228//-228 -97//-97 -98//-98 
f -227//-227 -230//-230 -99//-99 -96//-96 
f -228//-228 -226//-226 -95//-95 -97//-97 
f -225//-225 -227//-227 -96//-96 -94//-94 
f -226//-226 -224//-224 -93//-93 -95//-95 
f -223//-223 -225//-225 -94//-94 -92//-92 
f -224//-224 -222//-222 -91//-91 -93//-93 
f -221//-221 -223//-223 -92//-92 -90//-90 
f -222//-222 -220//-220 -89//-89 -91//-91 
f -219//-219 -221//-221 -90//-90 -88//-88 
f -220//-220 -218//-218 -87//-87 -89//-89 
f -217//-217 -219//-219 -88//-88 -86//-86 
f -218//-218 -216//-216 -85//-85 -87//-87 
f -215//-215 -217//-217 -86//-86 -84//-84 
f -216//-216 -214//-214 -83//-83 -85//-85 
f -213//-213 -215//-215 -84//-84 -82//-82 
f -214//-214 -212//-212 -81//-81 -83//-83 
f -211//-211 -213//-213 -82//-82 -80//-80 
f -212//-212 -210//-210 -79//-79 -81//-81 
f -209//-209 -211//-211 -80//-80 -78//-78 
f -210//-210 -208//-208 -77//-77 -79//-79 
f -207//-207 -209//-209 -78//-78 -76//-76 
f -208//-208 -206//-206 -75//-75 -77//-77 
f -205//-205 -207//-207 -76//-76 -74//-74 
f -206//-206 -204//-204 -73//-73 -75//-75 
f -203//-203 -205//-205 -74//-74 -72//-72 
f -204//-204 -202//-202 -71//-71 -73//-73 
f -201//-201 -203//-203 -72//-72 -70//-70 
f -202//-202 -200//-200 -69//-69 -71//-71 
f -199//-199 -201//-201 -70//-70 -68//-68 
f -198//-198 -199//-199 -68//-68 -67//-67 
f -200//-200 -197//-197 -66//-66 -69//-69 
f -196//-196 -198//-198 -67//-67 -65//-65 
f -197//-197 -195//-195 -64//-64 -66//-66 
f -194//-194 -196//-196 -65//-65 -63//-63 
f -193//-193 -194//-194 -63//-63 -62//-62 
f -195//-195 -192//-192 -61//-61 -64//-64 
f -191//-191 -193//-193 -62//-62 -60//-60 
f -192//-192 -190//-190 -59//-59 -61//-61 
f -189//-189 -191//-191 -60//-60 -58//-58 
f -188//-188 -189//-189 -58//-58 -57//-57 
f -190//-190 -187//-187 -56//-56 -59//-59 
f -186//-186 -188//-188 -57//-57 -55//-55 
f -185//-185 -186//-186 -55//-55 -54//-54 
f -187//-187 -184//-184 -53//-53 -56//-56 
f -183//-183 -185//-185 -54//-54 -52//-52 
f -184//-184 -182//-182 -51//-51 -53//-53 
f -181//-181 -183//-183 -52//-52 -50//-50 
f -180//-180 -181//-181 -50//-50 -49//-49 
f -182//-182 -179//-179 -48//-48 -51//-51 
f -178//-178 -180//-180 -49//-49 -47//-47 
f -179//-179 -177//-177 -46//-46 -48//-48 
f -176//-176 -178//-178 -47//-47 -45//-45 
f -175//-175 -176//-176 -45//-45 -44//-44 
f -177//-177 -174//-174 -43//-43 -46//-46 
f -173//-173 -175//-175 -44//-44 -42//-42 
f -174//-174 -172//-172 -41//-41 -43//-43 
f -171//-171 -173//-173 -42//-42 -40//-40 
f -170//-170 -171//-171 -40//-40 -39//-39 
f -172//-172 -169//-169 -38//-38 -41//-41 
f -168//-168 -170//-170 -39//-39 -37//-37 
f -169//-169 -167//-167 -36//-36 -38//-38 
f -166//-166 -168//-168 -37//-37 -35//-35 
f -165//-165 -166//-166 -35//-35 -34//-34 
f -167//-167 -164//-164 -33//-33 -36//-36 
f -163//-163 -165//-165 -34//-34 -32//-32 
f -164//-164 -162//-162 -31//-31 -33//-33 
f -161//-161 -163//-163 -32//-32 -30//-30 
f -162//-162 -160//-160 -29//-29 -31//-31 
f -159//-159 -161//-161 -30//-30 -28//-28 
f -160//-160 -158//-158 -27//-27 -29//-29 
f -157//-157 -159//-159 -28//-28 -26//-26 
f -158//-158 -156//-156 -25//-25 -27//-27 
f -155//-155 -157//-157 -26//-26 -24//-24 
f -156//-156 -154//-154 -23//-23 -25//-25 
f -153//-153 -155//-155 -24//-24 -22//-22 
f -154//-154 -152//-152 -21//-21 -23//-23 
f -151//-151 -153//-153 -22//-22 -20//-20 
f -152//-152 -150//-150 -19//-19 -21//-21 
f -149//-149 -151//-151 -20//-20 -18//-18 
f -150//-150 -148//-148 -17//-17 -19//-19 
f -147//-147 -149//-149 -18//-18 -16//-16 
f -148//-148 -146//-146 -15//-15 -17//-17 
f -145//-145 -147//-147 -16//-16 -14//-14 
f -146//-146 -144//-144 -13//-13 -15//-15 
f -143//-143 -145//-145 -14//-14 -12//-12 
f -144//-144 -142//-142 -11//-11 -13//-13 
f -142//-142 -141//-141 -10//-10 -11//-11 
f -140//-140 -143//-143 -12//-12 -9//-9 
f -141//-141 -139//-139 -8//-8 -10//-10 
f -138//-138 -140//-140 -9//-9 -7//-7 
f -139//-139 -137//-137 -6//-6 -8//-8 
f -137//-137 -136//-136 -5//-5 -6//-6 
f -135//-135 -138//-138 -7//-7 -4//-4 
f -136//-136 -134//-134 -3//-3 -5//-5 
f -134//-134 -133//-133 -2//-2 -3//-3 
f -133//-133 -132//-132 -1//-1 -2//-2 
s 4
f -259//-259 -135//-135 -4//-4 -128//-128 
s 8
f -132//-132 -260//-260 -131//-131 -1//-1 
f -262//-262 -259//-259 -128//-128 -129//-129 
# 259 polygons - 2 triangles

