# 3ds Max Wavefront OBJ Exporter v0.97b - (c)2007 guruware
# File Created: 29.01.2019 17:01:45

#
# object techo
#

v  -25.0000 7.4128 25.0000
v  -25.0000 7.4128 -25.0000
v  25.0000 7.4128 -25.0000
v  25.0000 7.4128 25.0000
v  -25.0000 -0.0000 -25.0000
v  -25.0000 -0.0000 25.0000
v  25.0000 -0.0000 25.0000
v  25.0000 -0.0000 -25.0000
# 8 vertices

vn 0.0000 -1.0000 -0.0000
vn 0.0000 1.0000 -0.0000
# 2 vertex normals

vt 0.0000 1.0000 0.0000
vt 0.0000 0.0000 0.0000
vt 1.0000 0.0000 0.0000
vt 1.0000 1.0000 0.0000
# 4 texture coords

o techo
g techo
s 1
f -8/-4/-2 -7/-3/-2 -6/-2/-2 -5/-1/-2 
f -4/-4/-1 -3/-3/-1 -2/-2/-1 -1/-1/-1 
# 2 polygons

